<svg width="46" height="53" viewBox="0 0 46 53" fill="none" xmlns="http://www.w3.org/2000/svg">
<path fill-rule="evenodd" clip-rule="evenodd" d="M8.35501 0C3.74067 0 0 3.74067 0 8.35502V37.4177C0 42.0321 3.74068 45.7727 8.35502 45.7727H30.2373L39.388 53V45.4267C42.8392 44.3996 45.3558 41.2025 45.3558 37.4177V8.35501C45.3558 3.74067 41.6151 0 37.0007 0H8.35501Z" fill="#2962FF"/>
<path d="M11.4083 18.1339V19.4316H6.75806V18.1339H11.4083ZM7.26273 10.6839V19.4316H5.61051V10.6839H7.26273ZM10.8015 14.2947V15.5624H6.75806V14.2947H10.8015ZM11.3903 10.6839V11.9876H6.75806V10.6839H11.3903ZM16.0165 18.0498V15.0518C16.0165 14.8315 15.9784 14.6412 15.9023 14.481C15.8262 14.3208 15.7101 14.1966 15.5539 14.1085C15.3977 14.0204 15.1994 13.9763 14.9591 13.9763C14.7468 13.9763 14.5605 14.0124 14.4003 14.0845C14.2441 14.1565 14.124 14.2587 14.0398 14.3909C13.9557 14.519 13.9137 14.6672 13.9137 14.8355H12.3215C12.3215 14.5671 12.3856 14.3128 12.5138 14.0724C12.642 13.8281 12.8242 13.6118 13.0605 13.4236C13.3009 13.2313 13.5872 13.0811 13.9197 12.973C14.2561 12.8648 14.6326 12.8107 15.0492 12.8107C15.5419 12.8107 15.9805 12.8949 16.365 13.0631C16.7535 13.2273 17.0579 13.4756 17.2782 13.8081C17.5025 14.1405 17.6146 14.5591 17.6146 15.0638V17.8996C17.6146 18.224 17.6347 18.5024 17.6747 18.7347C17.7188 18.963 17.7829 19.1613 17.867 19.3295V19.4316H16.2508C16.1747 19.2674 16.1166 19.0591 16.0766 18.8068C16.0365 18.5505 16.0165 18.2981 16.0165 18.0498ZM16.2388 15.4723L16.2508 16.4156H15.2475C14.9991 16.4156 14.7808 16.4416 14.5926 16.4937C14.4043 16.5418 14.2501 16.6139 14.13 16.71C14.0098 16.8021 13.9197 16.9143 13.8596 17.0464C13.7995 17.1746 13.7695 17.3208 13.7695 17.485C13.7695 17.6452 13.8055 17.7894 13.8776 17.9176C13.9537 18.0458 14.0619 18.1479 14.2021 18.224C14.3463 18.2961 14.5145 18.3322 14.7067 18.3322C14.9871 18.3322 15.2314 18.2761 15.4397 18.1639C15.648 18.0478 15.8102 17.9076 15.9264 17.7434C16.0425 17.5792 16.1046 17.4229 16.1126 17.2747L16.5692 17.9597C16.5132 18.1239 16.4291 18.2981 16.3169 18.4824C16.2048 18.6666 16.0606 18.8388 15.8843 18.9991C15.7081 19.1593 15.4958 19.2915 15.2475 19.3956C14.9991 19.4997 14.7107 19.5518 14.3823 19.5518C13.9617 19.5518 13.5852 19.4677 13.2528 19.2995C12.9203 19.1312 12.658 18.9009 12.4657 18.6085C12.2735 18.3161 12.1773 17.9837 12.1773 17.6112C12.1773 17.2667 12.2414 16.9623 12.3696 16.698C12.4978 16.4336 12.688 16.2113 12.9404 16.0311C13.1927 15.8468 13.5051 15.7086 13.8776 15.6165C14.2541 15.5204 14.6847 15.4723 15.1694 15.4723H16.2388ZM22.6194 17.6533C22.6194 17.5171 22.5833 17.3949 22.5112 17.2868C22.4391 17.1786 22.303 17.0805 22.1027 16.9924C21.9064 16.9002 21.618 16.8141 21.2375 16.734C20.9011 16.6619 20.5906 16.5718 20.3063 16.4637C20.0219 16.3555 19.7776 16.2253 19.5733 16.0731C19.369 15.9169 19.2088 15.7347 19.0926 15.5264C18.9805 15.3141 18.9244 15.0698 18.9244 14.7934C18.9244 14.525 18.9825 14.2727 19.0986 14.0364C19.2148 13.7961 19.383 13.5858 19.6033 13.4055C19.8236 13.2213 20.092 13.0771 20.4084 12.973C20.7248 12.8648 21.0813 12.8107 21.4778 12.8107C22.0306 12.8107 22.5052 12.9009 22.9018 13.0811C23.3023 13.2613 23.6087 13.5097 23.821 13.8261C24.0333 14.1385 24.1394 14.491 24.1394 14.8835H22.5533C22.5533 14.7113 22.5132 14.5551 22.4331 14.4149C22.357 14.2747 22.2389 14.1626 22.0786 14.0784C21.9184 13.9903 21.7162 13.9463 21.4718 13.9463C21.2515 13.9463 21.0653 13.9823 20.9131 14.0544C20.7649 14.1265 20.6527 14.2206 20.5766 14.3368C20.5005 14.4529 20.4625 14.5811 20.4625 14.7213C20.4625 14.8254 20.4825 14.9196 20.5226 15.0037C20.5666 15.0838 20.6367 15.1579 20.7328 15.226C20.829 15.2941 20.9591 15.3562 21.1234 15.4122C21.2916 15.4683 21.4979 15.5224 21.7422 15.5745C22.2268 15.6706 22.6494 15.7988 23.0099 15.959C23.3744 16.1152 23.6588 16.3235 23.863 16.5838C24.0673 16.8442 24.1695 17.1766 24.1695 17.5812C24.1695 17.8695 24.1074 18.1339 23.9832 18.3742C23.859 18.6105 23.6788 18.8168 23.4425 18.9931C23.2062 19.1693 22.9238 19.3075 22.5953 19.4076C22.2669 19.5037 21.8964 19.5518 21.4838 19.5518C20.887 19.5518 20.3824 19.4457 19.9698 19.2334C19.5573 19.0171 19.2448 18.7447 19.0326 18.4163C18.8203 18.0838 18.7141 17.7394 18.7141 17.3829H20.2342C20.2462 17.6352 20.3143 17.8375 20.4384 17.9897C20.5626 18.1419 20.7188 18.2521 20.9071 18.3201C21.0993 18.3842 21.3016 18.4163 21.5139 18.4163C21.7542 18.4163 21.9565 18.3842 22.1207 18.3201C22.2849 18.2521 22.4091 18.1619 22.4932 18.0498C22.5773 17.9336 22.6194 17.8014 22.6194 17.6533ZM27.2816 18.7107L29.024 12.9309H30.7243L28.1168 20.417C28.0567 20.5772 27.9786 20.7514 27.8824 20.9397C27.7903 21.1279 27.6662 21.3062 27.5099 21.4744C27.3537 21.6466 27.1575 21.7868 26.9212 21.895C26.6888 22.0031 26.4065 22.0572 26.074 22.0572C25.9298 22.0572 25.8017 22.0472 25.6895 22.0271C25.5774 22.0071 25.4592 21.9811 25.335 21.949V20.7594C25.3751 20.7634 25.4211 20.7654 25.4732 20.7654C25.5293 20.7694 25.5774 20.7714 25.6174 20.7714C25.8497 20.7714 26.042 20.7434 26.1942 20.6873C26.3464 20.6353 26.4685 20.5491 26.5607 20.429C26.6568 20.3128 26.7369 20.1606 26.801 19.9724L27.2816 18.7107ZM26.4225 12.9309L27.8945 17.7193L28.1528 19.3956L27.0593 19.5939L24.7102 12.9309H26.4225ZM9.36556 24.6839V33.4316H7.71935V24.6839H9.36556ZM12.0812 24.6839V25.9876H5.03374V24.6839H12.0812ZM15.4157 33.5518C14.923 33.5518 14.4804 33.4717 14.0879 33.3115C13.6954 33.1513 13.3609 32.929 13.0846 32.6446C12.8122 32.3562 12.6019 32.0217 12.4537 31.6412C12.3095 31.2567 12.2374 30.8442 12.2374 30.4036V30.1632C12.2374 29.6626 12.3095 29.208 12.4537 28.7994C12.5979 28.3869 12.8022 28.0324 13.0665 27.736C13.3309 27.4396 13.6473 27.2113 14.0158 27.0511C14.3843 26.8908 14.7909 26.8107 15.2355 26.8107C15.6961 26.8107 16.1026 26.8888 16.4551 27.0451C16.8076 27.1973 17.102 27.4136 17.3383 27.6939C17.5746 27.9743 17.7528 28.3108 17.873 28.7033C17.9932 29.0918 18.0532 29.5224 18.0532 29.995V30.6619H12.9584V29.5684H16.4911V29.4483C16.4831 29.1959 16.4351 28.9656 16.3469 28.7574C16.2588 28.5451 16.1226 28.3768 15.9384 28.2527C15.7541 28.1245 15.5158 28.0604 15.2234 28.0604C14.9871 28.0604 14.7808 28.1125 14.6046 28.2166C14.4324 28.3168 14.2882 28.461 14.172 28.6492C14.0599 28.8335 13.9758 29.0538 13.9197 29.3101C13.8636 29.5664 13.8356 29.8508 13.8356 30.1632V30.4036C13.8356 30.6759 13.8716 30.9283 13.9437 31.1606C14.0198 31.3929 14.13 31.5952 14.2742 31.7674C14.4224 31.9356 14.5986 32.0678 14.8029 32.1639C15.0111 32.2561 15.2475 32.3021 15.5118 32.3021C15.8443 32.3021 16.1447 32.238 16.413 32.1099C16.6854 31.9777 16.9217 31.7834 17.122 31.5271L17.9211 32.3562C17.7849 32.5565 17.6006 32.7487 17.3683 32.933C17.14 33.1172 16.8636 33.2674 16.5392 33.3836C16.2148 33.4957 15.8403 33.5518 15.4157 33.5518ZM20.7989 24.2032V33.4316H19.2068V24.2032H20.7989ZM23.9952 24.2032V33.4316H22.4031V24.2032H23.9952ZM27.1915 26.9309V33.4316H25.5994V26.9309H27.1915ZM25.4912 25.2306C25.4912 24.9943 25.5713 24.798 25.7316 24.6418C25.8958 24.4856 26.1161 24.4075 26.3924 24.4075C26.6688 24.4075 26.8871 24.4856 27.0473 24.6418C27.2115 24.798 27.2937 24.9943 27.2937 25.2306C27.2937 25.4629 27.2115 25.6572 27.0473 25.8134C26.8871 25.9696 26.6688 26.0477 26.3924 26.0477C26.1161 26.0477 25.8958 25.9696 25.7316 25.8134C25.5713 25.6572 25.4912 25.4629 25.4912 25.2306ZM30.2616 28.3188V33.4316H28.6755V26.9309H30.1655L30.2616 28.3188ZM30.0093 29.947H29.5407C29.5447 29.4743 29.6088 29.0457 29.7329 28.6612C29.8571 28.2767 30.0313 27.9463 30.2556 27.6699C30.4839 27.3935 30.7543 27.1812 31.0667 27.033C31.3792 26.8848 31.7276 26.8107 32.1121 26.8107C32.4246 26.8107 32.7069 26.8548 32.9593 26.9429C33.2116 27.031 33.4279 27.1712 33.6081 27.3635C33.7924 27.5557 33.9326 27.8081 34.0287 28.1205C34.1288 28.4289 34.1789 28.8094 34.1789 29.262V33.4316H32.5808V29.25C32.5808 28.9536 32.5367 28.7193 32.4486 28.5471C32.3645 28.3748 32.2403 28.2527 32.0761 28.1806C31.9159 28.1085 31.7176 28.0724 31.4813 28.0724C31.237 28.0724 31.0227 28.1225 30.8384 28.2226C30.6582 28.3188 30.506 28.4529 30.3818 28.6252C30.2616 28.7974 30.1695 28.9957 30.1054 29.22C30.0414 29.4443 30.0093 29.6866 30.0093 29.947ZM39.7124 26.9309H41.1543V33.2334C41.1543 33.8222 41.0261 34.3208 40.7698 34.7294C40.5174 35.1419 40.163 35.4544 39.7063 35.6666C39.2497 35.8829 38.719 35.9911 38.1142 35.9911C37.8539 35.9911 37.5715 35.955 37.2671 35.8829C36.9667 35.8108 36.6763 35.6967 36.3959 35.5405C36.1195 35.3883 35.8892 35.19 35.705 34.9457L36.4199 34.0084C36.6362 34.2608 36.8805 34.451 37.1529 34.5792C37.4253 34.7114 37.7197 34.7774 38.0361 34.7774C38.3565 34.7774 38.6289 34.7174 38.8532 34.5972C39.0815 34.4811 39.2557 34.3088 39.3759 34.0805C39.5001 33.8562 39.5622 33.5798 39.5622 33.2514V28.4149L39.7124 26.9309ZM35.3205 30.2594V30.1332C35.3205 29.6365 35.3805 29.1859 35.5007 28.7814C35.6209 28.3728 35.7931 28.0224 36.0174 27.73C36.2457 27.4376 36.5201 27.2113 36.8405 27.0511C37.1649 26.8908 37.5294 26.8107 37.934 26.8107C38.3625 26.8107 38.723 26.8888 39.0154 27.0451C39.3118 27.2013 39.5561 27.4236 39.7484 27.712C39.9447 28.0003 40.0969 28.3428 40.205 28.7393C40.3172 29.1319 40.4033 29.5644 40.4634 30.0371V30.3795C40.4073 30.8402 40.3172 31.2627 40.193 31.6472C40.0728 32.0318 39.9126 32.3682 39.7124 32.6566C39.5121 32.941 39.2638 33.1613 38.9674 33.3175C38.671 33.4737 38.3225 33.5518 37.9219 33.5518C37.5214 33.5518 37.1609 33.4697 36.8405 33.3055C36.5201 33.1413 36.2457 32.9109 36.0174 32.6145C35.7931 32.3181 35.6209 31.9697 35.5007 31.5691C35.3805 31.1686 35.3205 30.732 35.3205 30.2594ZM36.9066 30.1332V30.2594C36.9066 30.5398 36.9346 30.8021 36.9907 31.0464C37.0468 31.2908 37.1329 31.5071 37.249 31.6953C37.3652 31.8796 37.5114 32.0237 37.6876 32.1279C37.8639 32.232 38.0742 32.2841 38.3185 32.2841C38.6469 32.2841 38.9153 32.216 39.1236 32.0798C39.3358 31.9396 39.4961 31.7494 39.6042 31.5091C39.7164 31.2647 39.7885 30.9904 39.8205 30.6859V29.7427C39.8005 29.5024 39.7564 29.2801 39.6883 29.0758C39.6242 28.8715 39.5341 28.6953 39.418 28.5471C39.3018 28.3989 39.1536 28.2827 38.9734 28.1986C38.7931 28.1145 38.5788 28.0724 38.3305 28.0724C38.0902 28.0724 37.8799 28.1265 37.6996 28.2347C37.5194 28.3388 37.3712 28.485 37.2551 28.6732C37.1389 28.8615 37.0508 29.0798 36.9907 29.3281C36.9346 29.5765 36.9066 29.8448 36.9066 30.1332Z" fill="white"/>
</svg>
